# xmcd CD database file
#
# Track frame offsets:
#	182
#	10862
#	24270
#	37637
#	48082
#	58012
#	68772
#	79215
#	94585
#	104017
#	113842
#	128280
#	141037
#	154252
#	167217
#	177560
#
# Disc length: 2510 seconds
#
# Revision: 3
# Processed by: cddbd v1.5.2PL0 Copyright (c) Steve Scherf et al.
# Submitted via: CDex 1.50
#
DISCID=c309cc10
DTITLE=Various Artist - 16 All Time Country Greats - CD 7
DYEAR=1989
DGENRE=Country
TTITLE0=Roger Miller - King Of The Road
TTITLE1=Willie Nelson - I Just Don't Understand
TTITLE2=Patti Page - Tennessee Waltz
TTITLE3=Faron Young - If You Ain't Lovin'
TTITLE4=Johnny Cash - Ballad Of A Teenage Queen
TTITLE5=Kenny Rogers - She Even Woke Me Up To Say Goodbye
TTITLE6=Jimmy C Newman - DJ For A Day
TTITLE7=Glenn Barber - Cry Cry Darlin'
TTITLE8=Bill Phillips - The Company You Keep
TTITLE9=John Anderson - Mississippi Rainstorm
TTITLE10=Glenn Barber - Anothe Man's Woman
TTITLE11=Freddy Fender - Almost Persuaded
TTITLE12=David Huston - When They Ring Those Golden Bells
TTITLE13=Frankie Laine - Moonlight Gambler
TTITLE14=Kenny Price - Walking On New Grass
TTITLE15=Glenn Campbell - Redwing
EXTD=YEAR: 1989
EXTT0=
EXTT1=
EXTT2=
EXTT3=
EXTT4=
EXTT5=
EXTT6=
EXTT7=
EXTT8=
EXTT9=
EXTT10=
EXTT11=
EXTT12=
EXTT13=
EXTT14=
EXTT15=
PLAYORDER=
